<svg width="180" height="176" viewBox="0 0 180 176" fill="none" xmlns="http://www.w3.org/2000/svg">
    <g clip-path="url(#clip0_17_292)">
        <path d="M108 141.778C108 140.481 107.473 139.238 106.536 138.321C105.598 137.404 104.326 136.889 103 136.889H73C71.6739 136.889 70.4021 137.404 69.4645 138.321C68.5268 139.238 68 140.481 68 141.778C68 143.074 68.5268 144.318 69.4645 145.235C70.4021 146.152 71.6739 146.667 73 146.667H103C104.326 146.667 105.598 146.152 106.536 145.235C107.473 144.318 108 143.074 108 141.778Z" fill="#FFD755"/>
        <path d="M112.7 117.333H82.7C81.3739 117.333 80.1021 117.848 79.1644 118.765C78.2267 119.682 77.7 120.926 77.7 122.222C77.7 123.519 78.2267 124.762 79.1644 125.679C80.1021 126.596 81.3739 127.111 82.7 127.111H112.7C114.026 127.111 115.298 126.596 116.235 125.679C117.173 124.762 117.7 123.519 117.7 122.222C117.7 120.926 117.173 119.682 116.235 118.765C115.298 117.848 114.026 117.333 112.7 117.333Z" fill="#FFD755"/>
        <path d="M110 156.444H80C78.6739 156.444 77.4021 156.96 76.4645 157.876C75.5268 158.793 75 160.037 75 161.333C75 162.63 75.5268 163.873 76.4645 164.79C77.4021 165.707 78.6739 166.222 80 166.222H110C111.326 166.222 112.598 165.707 113.536 164.79C114.473 163.873 115 162.63 115 161.333C115 160.037 114.473 158.793 113.536 157.876C112.598 156.96 111.326 156.444 110 156.444Z" fill="#FFD755"/>
        <path d="M163.5 156.444H128.5C127.174 156.444 125.902 156.96 124.964 157.876C124.027 158.793 123.5 160.037 123.5 161.333C123.5 162.63 124.027 163.873 124.964 164.79C125.902 165.707 127.174 166.222 128.5 166.222H163.5C164.826 166.222 166.098 165.707 167.036 164.79C167.973 163.873 168.5 162.63 168.5 161.333C168.5 160.037 167.973 158.793 167.036 157.876C166.098 156.96 164.826 156.444 163.5 156.444Z" fill="#FFD755"/>
        <path d="M168.5 136.889H133.5C132.174 136.889 130.902 137.404 129.964 138.321C129.027 139.238 128.5 140.481 128.5 141.778C128.5 143.074 129.027 144.318 129.964 145.235C130.902 146.152 132.174 146.667 133.5 146.667H168.5C169.826 146.667 171.098 146.152 172.036 145.235C172.973 144.318 173.5 143.074 173.5 141.778C173.5 140.481 172.973 139.238 172.036 138.321C171.098 137.404 169.826 136.889 168.5 136.889Z" fill="#FFD755"/>
        <path d="M168.7 127.111C167.235 109.897 162.45 93.1099 154.6 77.6356C147.08 63.652 136.244 51.6325 123 42.5822L135 16.72C135.387 15.9471 135.558 15.088 135.497 14.2296C135.435 13.3712 135.143 12.5438 134.65 11.8311C134.195 11.2059 133.596 10.6943 132.901 10.3375C132.206 9.98082 131.435 9.78906 130.65 9.77779H49C48.1594 9.77575 47.3319 9.98094 46.594 10.3744C45.856 10.7678 45.2314 11.3368 44.7778 12.0288C44.3243 12.7208 44.0565 13.5134 43.9992 14.3333C43.9419 15.1533 44.0969 15.9741 44.45 16.72L56.7 42.68C43.5524 51.7388 32.7909 63.7188 25.3 77.6356C14.55 97.1911 11.2 121.098 10.3 137.671C10.1526 140.097 10.5208 142.527 11.3813 144.807C12.2419 147.088 13.5761 149.169 15.3 150.92C17.1118 152.641 19.2571 153.99 21.6098 154.888C23.9625 155.786 26.4751 156.216 29 156.151H60V146.667H28.6C27.4684 146.663 26.3492 146.436 25.3096 145.999C24.2699 145.563 23.3313 144.925 22.55 144.124C21.7675 143.33 21.1632 142.386 20.7758 141.35C20.3883 140.315 20.2263 139.211 20.3 138.111C21 125.351 23.75 101.053 34.1 82.1333C41.3961 68.577 52.1851 57.1177 65.4 48.8889H70.4C67.0117 53.472 63.8901 58.2381 61.05 63.1645C58.1573 68.4065 55.6994 73.867 53.7 79.4933L60.55 83.9911C62.5737 78.1538 65.0648 72.4814 68 67.0267C71.6043 60.6842 75.6996 54.6205 80.25 48.8889H85.25C88.6041 56.7277 90.9715 64.936 92.3 73.3333C93.3861 79.5672 93.9214 85.8809 93.9 92.2045L101.8 86.7778C101.58 81.8611 101.045 76.9626 100.2 72.1111C98.8584 64.1822 96.7145 56.4033 93.8 48.8889H97.7L102.25 39.1111H66.05L56.8 19.5556H122.85L110.35 46.2978C112.493 47.42 114.548 48.6945 116.5 50.1111C128.751 58.3753 138.798 69.3894 145.8 82.2311C152.813 96.3121 157.167 111.516 158.65 127.111H168.7Z" fill="#FFD755"/>
    </g>
    <defs>
        <clipPath id="clip0_17_292">
            <rect width="180" height="176" fill="white"/>
        </clipPath>
    </defs>
</svg>
